# xmcd CD database file
#
# Track frame offsets:
#	150
#	17213
#	35714
#	51063
#	70519
#	94091
#	105789
#	125178
#	139816
#	155785
#
# Disc length: 2312 seconds
#
# Revision: 0
# Processed by: cddbd v1.4PL0 Copyright (c) Steve Scherf et al.
# Submitted via: CDex 1.50
#
DISCID=8609060a
DTITLE=Jake La Botz - Used to Be
DYEAR=2000
DGENRE=Blues
TTITLE0=This Ain't the Way I Came Up
TTITLE1=Sincerely Yours
TTITLE2=Homesick (Just Like James)
TTITLE3=Riding the Dog
TTITLE4=I Found Out
TTITLE5=Then I'd Know
TTITLE6=Used to Be
TTITLE7=Crow Jane
TTITLE8=Leaving Just to Leave
TTITLE9=For the Brothers
EXTD=YEAR: 2000
EXTT0=
EXTT1=
EXTT2=
EXTT3=
EXTT4=
EXTT5=
EXTT6=
EXTT7=
EXTT8=
EXTT9=
PLAYORDER=
